<svg xmlns="http://www.w3.org/2000/svg" xmlns:xlink="http://www.w3.org/1999/xlink" width="500" zoomAndPan="magnify" viewBox="0 0 375 374.999991" height="500" preserveAspectRatio="xMidYMid meet" version="1.0"><defs><g/><clipPath id="bfbc71b9ff"><path d="M 180 98 L 212 98 L 212 138 L 180 138 Z M 180 98 " clip-rule="nonzero"/></clipPath><clipPath id="44a73b8dc5"><path d="M 154.347656 99.71875 L 196.976562 74.0625 L 222.632812 116.6875 L 180.007812 142.347656 Z M 154.347656 99.71875 " clip-rule="nonzero"/></clipPath><clipPath id="1c483aa311"><path d="M 154.347656 99.71875 L 196.976562 74.0625 L 222.632812 116.6875 L 180.007812 142.347656 Z M 154.347656 99.71875 " clip-rule="nonzero"/></clipPath><clipPath id="e5a405bf30"><path d="M 160 95 L 179 95 L 179 121 L 160 121 Z M 160 95 " clip-rule="nonzero"/></clipPath><clipPath id="d87973a86e"><path d="M 154.347656 99.71875 L 196.976562 74.0625 L 222.632812 116.6875 L 180.007812 142.347656 Z M 154.347656 99.71875 " clip-rule="nonzero"/></clipPath><clipPath id="94d1507b27"><path d="M 154.347656 99.71875 L 196.976562 74.0625 L 222.632812 116.6875 L 180.007812 142.347656 Z M 154.347656 99.71875 " clip-rule="nonzero"/></clipPath><clipPath id="926b144f8a"><path d="M 193.265625 153 L 205 153 L 205 177 L 193.265625 177 Z M 193.265625 153 " clip-rule="nonzero"/></clipPath><clipPath id="c11fc1a3bf"><path d="M 224 139 L 235.625 139 L 235.625 177 L 224 177 Z M 224 139 " clip-rule="nonzero"/></clipPath><clipPath id="69c1f5304a"><path d="M 139.425781 136.273438 L 184.472656 136.273438 L 184.472656 181.320312 L 139.425781 181.320312 Z M 139.425781 136.273438 " clip-rule="nonzero"/></clipPath></defs><rect x="-37.5" width="450" fill="#ffffff" y="-37.499999" height="449.999989" fill-opacity="1"/><rect x="-37.5" width="450" fill="#ffffff" y="-37.499999" height="449.999989" fill-opacity="1"/><rect x="-37.5" width="450" fill="#73ced0" y="-37.499999" height="449.999989" fill-opacity="1"/><path stroke-linecap="butt" transform="matrix(0.672078, 0, 0, 0.672349, 105.638918, 60.390526)" fill="none" stroke-linejoin="miter" d="M 0.00253934 2.998032 L 233.106369 2.998032 " stroke="#795cd2" stroke-width="6" stroke-opacity="1" stroke-miterlimit="4"/><path stroke-linecap="butt" transform="matrix(0.672078, 0, 0, 0.672349, 112.632998, 220.194478)" fill="none" stroke-linejoin="miter" d="M -0.000275866 2.999127 L 233.103553 2.999127 " stroke="#795cd2" stroke-width="6" stroke-opacity="1" stroke-miterlimit="4"/><path stroke-linecap="butt" transform="matrix(0.672078, 0, 0, 0.672349, 112.632998, 67.384604)" fill="none" stroke-linejoin="miter" d="M -0.000275866 3.001032 L 233.103553 3.001032 " stroke="#795cd2" stroke-width="6" stroke-opacity="1" stroke-miterlimit="4"/><path stroke-linecap="butt" transform="matrix(0.000000000000000041, 0.672078, -0.672349, 0.000000000000000041, 116.605288, 67.446418)" fill="none" stroke-linejoin="miter" d="M -0.00164485 2.997617 L 233.107997 2.997617 " stroke="#795cd2" stroke-width="6" stroke-opacity="1" stroke-miterlimit="4"/><path stroke-linecap="butt" transform="matrix(0.000000000000000041, 0.672078, -0.672349, 0.000000000000000041, 269.415133, 67.446418)" fill="none" stroke-linejoin="miter" d="M -0.00164485 2.999478 L 233.107997 2.999478 " stroke="#795cd2" stroke-width="6" stroke-opacity="1" stroke-miterlimit="4"/><path stroke-linecap="butt" transform="matrix(0.000000000000000041, 0.672078, -0.672349, 0.000000000000000041, 109.611201, 60.452336)" fill="none" stroke-linejoin="miter" d="M 0.00117392 3.000602 L 233.105003 3.000602 " stroke="#795cd2" stroke-width="6" stroke-opacity="1" stroke-miterlimit="4"/><path stroke-linecap="butt" transform="matrix(0.000000000000000041, 0.672078, -0.672349, 0.000000000000000041, 262.421061, 60.452336)" fill="none" stroke-linejoin="miter" d="M 0.00117392 3.002485 L 233.105003 3.002485 " stroke="#795cd2" stroke-width="6" stroke-opacity="1" stroke-miterlimit="4"/><g clip-path="url(#bfbc71b9ff)"><g clip-path="url(#44a73b8dc5)"><g clip-path="url(#1c483aa311)"><path fill="#795cd2" d="M 186.359375 137.8125 C 185.238281 137.734375 184.367188 136.796875 184.394531 135.667969 C 184.503906 131.519531 184.804688 120.980469 190.4375 113.683594 C 193.394531 109.851562 200.398438 106.160156 200.398438 106.160156 C 200.398438 106.160156 192.441406 106.511719 186.078125 114.582031 C 183.492188 117.859375 182.152344 123.710938 182.152344 123.710938 C 182.152344 123.710938 175.449219 110.660156 188.039062 103.085938 C 198.992188 96.492188 211.972656 99.195312 211.972656 99.195312 C 211.972656 99.195312 211.503906 115.242188 201.265625 121.40625 C 193.714844 125.949219 188.21875 126.214844 188.21875 126.214844 C 188.085938 127.257812 188.402344 132.925781 188.613281 135.609375 C 188.710938 136.871094 187.46875 137.902344 186.359375 137.8125 Z M 186.359375 137.8125 " fill-opacity="1" fill-rule="nonzero"/></g></g></g><g clip-path="url(#e5a405bf30)"><g clip-path="url(#d87973a86e)"><g clip-path="url(#94d1507b27)"><path fill="#795cd2" d="M 176.835938 120.316406 C 176.835938 120.316406 167.882812 121.988281 163.210938 114.226562 C 158.539062 106.460938 161.578125 95.367188 161.578125 95.367188 C 161.578125 95.367188 170.097656 97.902344 174.292969 102.726562 C 180.140625 109.445312 177.78125 117.828125 177.78125 117.828125 C 177.78125 117.828125 171.878906 114.132812 166.40625 105.046875 C 167.875 110.703125 169.792969 114.785156 176.835938 120.316406 Z M 176.835938 120.316406 " fill-opacity="1" fill-rule="nonzero"/></g></g></g><g clip-path="url(#926b144f8a)"><path fill="#795cd2" d="M 204.167969 154.167969 C 204.167969 154.167969 196.941406 152.238281 195.132812 155.820312 C 193.324219 159.40625 193.472656 174.570312 194.503906 175.671875 C 195.535156 176.777344 203.28125 177.878906 204.058594 175.398438 C 204.832031 172.917969 205.332031 154.414062 204.167969 154.167969 Z M 204.167969 154.167969 " fill-opacity="1" fill-rule="nonzero"/></g><path fill="#795cd2" d="M 209.222656 148.234375 C 209.222656 148.234375 207.929688 175.21875 209.222656 175.925781 C 210.511719 176.632812 218 177.703125 218.515625 175.925781 C 219.035156 174.152344 219.035156 150.441406 218.515625 148.234375 C 218 146.027344 209.308594 146.269531 209.222656 148.234375 Z M 209.222656 148.234375 " fill-opacity="1" fill-rule="nonzero"/><g clip-path="url(#c11fc1a3bf)"><path fill="#795cd2" d="M 224.683594 140.332031 C 224.683594 140.332031 224.136719 176.152344 224.683594 176.164062 C 225.230469 176.175781 233.492188 177.808594 234.523438 176.164062 C 235.558594 174.523438 235.300781 141.710938 234.523438 140.332031 C 233.75 138.953125 224.707031 138.667969 224.683594 140.332031 Z M 224.683594 140.332031 " fill-opacity="1" fill-rule="nonzero"/></g><path fill="#795cd2" d="M 197.785156 148.351562 C 197.785156 148.351562 209.601562 139.050781 210.167969 139.984375 C 210.738281 140.917969 211.316406 142.441406 212.257812 142.632812 C 213.203125 142.824219 221.355469 136.910156 221.355469 136.910156 C 221.355469 136.910156 222.257812 138.914062 223.34375 138.53125 C 224.433594 138.152344 226.285156 131.757812 225.90625 130.617188 C 225.527344 129.472656 218.160156 130.238281 217.386719 130.808594 C 216.617188 131.382812 218.511719 133.859375 218.511719 133.859375 L 211.496094 137.675781 C 211.496094 137.675781 210.925781 135.386719 209.222656 135.195312 C 207.515625 135.003906 195.382812 144.539062 195.382812 144.539062 Z M 197.785156 148.351562 " fill-opacity="1" fill-rule="nonzero"/><g clip-path="url(#69c1f5304a)"><path fill="#795cd2" d="M 145.863281 150.75 L 141.039062 150.75 C 140.152344 150.75 139.429688 150.03125 139.429688 149.140625 C 139.429688 148.253906 140.152344 147.535156 141.039062 147.535156 L 145.863281 147.535156 L 145.863281 145.925781 C 145.863281 145.074219 146.203125 144.253906 146.804688 143.652344 C 147.410156 143.046875 148.226562 142.707031 149.082031 142.707031 L 150.6875 142.707031 L 150.6875 139.488281 C 150.6875 138.601562 151.410156 137.878906 152.296875 137.878906 C 153.1875 137.878906 153.90625 138.601562 153.90625 139.488281 L 153.90625 142.707031 L 157.125 142.707031 L 157.125 137.882812 C 157.125 136.992188 157.847656 136.273438 158.734375 136.273438 C 159.621094 136.273438 160.34375 136.992188 160.34375 137.882812 L 160.34375 142.707031 L 163.558594 142.707031 L 163.558594 139.488281 C 163.558594 138.601562 164.28125 137.878906 165.167969 137.878906 C 166.058594 137.878906 166.777344 138.601562 166.777344 139.488281 L 166.777344 142.707031 L 169.996094 142.707031 L 169.996094 137.882812 C 169.996094 136.992188 170.71875 136.273438 171.605469 136.273438 C 172.492188 136.273438 173.214844 136.992188 173.214844 137.882812 L 173.214844 142.707031 L 174.820312 142.707031 C 175.671875 142.707031 176.492188 143.046875 177.09375 143.652344 C 177.695312 144.253906 178.035156 145.074219 178.035156 145.925781 L 178.035156 147.535156 L 181.253906 147.535156 C 182.140625 147.535156 182.863281 148.253906 182.863281 149.144531 C 182.863281 150.03125 182.140625 150.753906 181.253906 150.753906 L 178.035156 150.753906 L 178.035156 153.96875 L 182.859375 153.96875 C 183.75 153.96875 184.46875 154.691406 184.46875 155.578125 C 184.46875 156.46875 183.75 157.1875 182.859375 157.1875 L 178.035156 157.1875 L 178.035156 160.40625 L 181.253906 160.40625 C 182.140625 160.40625 182.863281 161.125 182.863281 162.015625 C 182.863281 162.902344 182.140625 163.625 181.253906 163.625 L 178.035156 163.625 L 178.035156 166.839844 L 182.859375 166.839844 C 183.75 166.839844 184.46875 167.5625 184.46875 168.449219 C 184.46875 169.339844 183.75 170.058594 182.859375 170.058594 L 178.035156 170.058594 L 178.035156 171.664062 C 178.035156 172.519531 177.695312 173.335938 177.09375 173.941406 C 176.492188 174.542969 175.671875 174.882812 174.820312 174.882812 L 173.214844 174.882812 L 173.214844 178.101562 C 173.214844 178.988281 172.492188 179.710938 171.605469 179.710938 C 170.71875 179.710938 169.996094 178.988281 169.996094 178.101562 L 169.996094 174.882812 L 166.777344 174.882812 L 166.777344 179.707031 C 166.777344 180.597656 166.058594 181.316406 165.167969 181.316406 C 164.28125 181.316406 163.558594 180.597656 163.558594 179.707031 L 163.558594 174.882812 L 160.34375 174.882812 L 160.34375 178.101562 C 160.34375 178.988281 159.621094 179.710938 158.734375 179.710938 C 157.847656 179.710938 157.125 178.988281 157.125 178.101562 L 157.125 174.882812 L 153.90625 174.882812 L 153.90625 179.707031 C 153.90625 180.597656 153.1875 181.316406 152.296875 181.316406 C 151.410156 181.316406 150.6875 180.597656 150.6875 179.707031 L 150.6875 174.882812 L 149.082031 174.882812 C 148.226562 174.882812 147.410156 174.542969 146.804688 173.941406 C 146.203125 173.335938 145.863281 172.519531 145.863281 171.664062 L 145.863281 170.058594 L 142.648438 170.058594 C 141.757812 170.058594 141.039062 169.335938 141.039062 168.449219 C 141.039062 167.558594 141.757812 166.839844 142.648438 166.839844 L 145.863281 166.839844 L 145.863281 163.621094 L 141.039062 163.621094 C 140.152344 163.621094 139.429688 162.902344 139.429688 162.011719 C 139.429688 161.125 140.152344 160.402344 141.039062 160.402344 L 145.863281 160.402344 L 145.863281 157.1875 L 142.648438 157.1875 C 141.757812 157.1875 141.039062 156.464844 141.039062 155.578125 C 141.039062 154.691406 141.757812 153.96875 142.648438 153.96875 L 145.863281 153.96875 Z M 171.507812 151.652344 C 171.507812 150.320312 170.425781 149.242188 169.09375 149.242188 L 154.808594 149.242188 C 153.476562 149.242188 152.394531 150.320312 152.394531 151.652344 L 152.394531 165.9375 C 152.394531 167.273438 153.476562 168.351562 154.808594 168.351562 L 169.09375 168.351562 C 170.425781 168.351562 171.507812 167.273438 171.507812 165.9375 Z M 155.613281 165.132812 L 155.613281 152.457031 L 168.289062 152.457031 L 168.289062 165.132812 Z M 155.613281 165.132812 " fill-opacity="1" fill-rule="evenodd"/></g><path stroke-linecap="butt" transform="matrix(0.672078, 0, 0, 0.672349, 105.638918, 213.200376)" fill="none" stroke-linejoin="miter" d="M 0.00253934 3.001974 L 233.106369 3.001974 " stroke="#795cd2" stroke-width="6" stroke-opacity="1" stroke-miterlimit="4"/><g fill="#795cd2" fill-opacity="1"><g transform="translate(48.553865, 298.513091)"><g><path d="M 24.859375 -38.046875 C 26.773438 -35.023438 28.039062 -31.976562 28.65625 -28.90625 L 28.65625 -28.96875 C 28.988281 -27.945312 29.195312 -26.617188 29.28125 -24.984375 C 29.195312 -23.753906 29.15625 -22.832031 29.15625 -22.21875 L 29.09375 -21.234375 C 29.09375 -20.953125 29.050781 -19.988281 28.96875 -18.34375 C 28.882812 -16.707031 28.679688 -15.09375 28.359375 -13.5 C 27.578125 -11.207031 26.5 -8.96875 25.125 -6.78125 C 23.757812 -4.59375 22.132812 -2.332031 20.25 0 C 16.8125 0.0820312 13.988281 0.125 11.78125 0.125 L 7.359375 0.1875 L 2.578125 0.25 C 1.835938 -5.113281 1.46875 -11.867188 1.46875 -20.015625 C 1.46875 -23.566406 1.488281 -26.222656 1.53125 -27.984375 C 1.570312 -29.578125 1.59375 -32.320312 1.59375 -36.21875 C 1.59375 -37.195312 1.550781 -38.664062 1.46875 -40.625 L 1.40625 -42.46875 L 1.84375 -42.53125 C 4.007812 -43.101562 6.523438 -43.390625 9.390625 -43.390625 L 10.984375 -43.328125 L 12.640625 -43.328125 C 13.171875 -43.285156 13.988281 -43.265625 15.09375 -43.265625 C 16.195312 -43.265625 17.015625 -43.285156 17.546875 -43.328125 C 19.066406 -42.921875 20.519531 -42.195312 21.90625 -41.15625 C 23.300781 -40.113281 24.40625 -38.914062 25.21875 -37.5625 Z M 19.265625 -21.046875 C 19.265625 -21.785156 19.1875 -22.503906 19.03125 -23.203125 C 18.695312 -24.921875 18.304688 -26.320312 17.859375 -27.40625 C 17.410156 -28.488281 16.710938 -29.191406 15.765625 -29.515625 L 15.890625 -29.515625 C 14.910156 -29.597656 14.175781 -29.640625 13.6875 -29.640625 C 12.863281 -29.640625 12.332031 -29.597656 12.09375 -29.515625 C 12.175781 -28.046875 12.21875 -26.65625 12.21875 -25.34375 L 12.21875 -23.75 L 12.15625 -22.09375 C 12.113281 -21.15625 12.09375 -19.742188 12.09375 -17.859375 C 12.09375 -16.054688 12.070312 -14.6875 12.03125 -13.75 C 12.644531 -13.5 13.070312 -13.375 13.3125 -13.375 L 14.109375 -13.375 C 14.765625 -13.375 15.238281 -13.4375 15.53125 -13.5625 C 16.1875 -13.726562 16.921875 -14.460938 17.734375 -15.765625 C 18.753906 -17.328125 19.265625 -19.085938 19.265625 -21.046875 Z M 19.265625 -21.046875 "/></g></g></g><g fill="#795cd2" fill-opacity="1"><g transform="translate(78.135287, 298.513091)"><g><path d="M 16.328125 -2.203125 L 16.203125 -2.140625 L 16.265625 -2.140625 C 15.285156 -1.492188 14.160156 -0.972656 12.890625 -0.578125 C 11.617188 -0.191406 10.328125 0 9.015625 0 C 6.316406 0 4.234375 -0.65625 2.765625 -1.96875 C 1.617188 -2.988281 1.046875 -6.363281 1.046875 -12.09375 C 1.046875 -13.769531 1.085938 -16.328125 1.171875 -19.765625 C 1.242188 -22.710938 1.28125 -24.816406 1.28125 -26.078125 C 1.28125 -27.472656 1.242188 -29.03125 1.171875 -30.75 C 3.335938 -31.070312 5.546875 -31.191406 7.796875 -31.109375 L 10.671875 -31.109375 C 10.753906 -29.890625 10.796875 -27.519531 10.796875 -24 C 10.796875 -21.707031 10.835938 -19.660156 10.921875 -17.859375 C 10.960938 -17.328125 10.984375 -16.628906 10.984375 -15.765625 C 11.148438 -13.023438 11.640625 -11.3125 12.453125 -10.625 C 12.785156 -10.457031 13.238281 -10.375 13.8125 -10.375 C 14.550781 -10.375 15.195312 -10.640625 15.75 -11.171875 C 16.300781 -11.703125 16.613281 -12.582031 16.6875 -13.8125 C 16.769531 -14.957031 16.8125 -15.796875 16.8125 -16.328125 C 16.8125 -17.710938 16.75 -19.144531 16.625 -20.625 C 16.59375 -21.113281 16.554688 -21.835938 16.515625 -22.796875 C 16.472656 -23.765625 16.453125 -24.613281 16.453125 -25.34375 C 16.453125 -27.476562 16.550781 -29.238281 16.75 -30.625 C 17.8125 -30.914062 18.671875 -31.085938 19.328125 -31.140625 C 19.984375 -31.203125 20.722656 -31.210938 21.546875 -31.171875 C 21.910156 -31.128906 22.539062 -31.109375 23.4375 -31.109375 C 24.382812 -31.109375 25.304688 -31.148438 26.203125 -31.234375 C 26.203125 -26.328125 26.222656 -22.6875 26.265625 -20.3125 C 26.347656 -15 26.390625 -10.96875 26.390625 -8.21875 C 26.390625 -6.257812 26.347656 -3.4375 26.265625 0.25 L 24.796875 0.1875 C 23.929688 0.1875 23.132812 0.207031 22.40625 0.25 C 21.175781 0.363281 19.90625 0.421875 18.59375 0.421875 C 17.164062 0.421875 16.453125 0.28125 16.453125 0 C 16.367188 -0.53125 16.328125 -1.242188 16.328125 -2.140625 Z M 16.328125 -2.203125 "/></g></g></g><g fill="#795cd2" fill-opacity="1"><g transform="translate(105.752792, 298.513091)"><g><path d="M 12.09375 -31.859375 C 12.289062 -31.816406 13.023438 -31.796875 14.296875 -31.796875 C 14.546875 -31.835938 15.054688 -31.859375 15.828125 -31.859375 C 16.328125 -31.859375 16.675781 -31.835938 16.875 -31.796875 C 18.3125 -31.710938 19.671875 -31.4375 20.953125 -30.96875 C 22.242188 -30.5 23.28125 -29.875 24.0625 -29.09375 C 25.25 -28.15625 26.023438 -26.679688 26.390625 -24.671875 C 26.753906 -22.671875 26.9375 -20.335938 26.9375 -17.671875 L 26.9375 -15.65625 C 26.820312 -12.175781 26.617188 -9.25 26.328125 -6.875 C 26.046875 -4.5 25.554688 -2.90625 24.859375 -2.09375 C 24.035156 -0.945312 22.859375 -0.148438 21.328125 0.296875 C 19.796875 0.753906 18.003906 0.984375 15.953125 0.984375 C 15.179688 0.984375 14.097656 0.941406 12.703125 0.859375 C 11.390625 0.773438 10.390625 0.734375 9.703125 0.734375 C 7.523438 0.328125 5.617188 -0.59375 3.984375 -2.03125 C 2.722656 -3.25 1.84375 -4.789062 1.34375 -6.65625 C 0.851562 -8.519531 0.609375 -10.617188 0.609375 -12.953125 L 0.546875 -19.953125 C 0.429688 -21.054688 0.566406 -22.648438 0.953125 -24.734375 C 1.335938 -26.816406 1.734375 -28.003906 2.140625 -28.296875 C 2.597656 -29.441406 3.773438 -30.320312 5.671875 -30.9375 C 7.578125 -31.550781 9.71875 -31.859375 12.09375 -31.859375 Z M 10.796875 -19.453125 C 10.753906 -19.046875 10.710938 -18.484375 10.671875 -17.765625 C 10.640625 -17.046875 10.625 -16.503906 10.625 -16.140625 L 10.5625 -14.921875 C 10.5625 -13.890625 10.519531 -12.757812 10.4375 -11.53125 C 10.476562 -10.632812 10.820312 -9.898438 11.46875 -9.328125 C 12.125 -8.753906 12.863281 -8.46875 13.6875 -8.46875 C 14.507812 -8.46875 15.328125 -8.648438 16.140625 -9.015625 C 16.390625 -9.140625 16.695312 -9.816406 17.0625 -11.046875 L 17.125 -11.359375 C 17.363281 -13.398438 17.484375 -14.890625 17.484375 -15.828125 C 17.484375 -16.816406 17.40625 -17.695312 17.25 -18.46875 C 17.039062 -19.53125 16.640625 -20.367188 16.046875 -20.984375 C 15.453125 -21.597656 14.707031 -21.90625 13.8125 -21.90625 C 13.644531 -21.90625 13.316406 -21.863281 12.828125 -21.78125 C 11.804688 -21.457031 11.210938 -21.007812 11.046875 -20.4375 Z M 10.796875 -19.453125 "/></g></g></g><g fill="#795cd2" fill-opacity="1"><g transform="translate(133.247556, 298.513091)"><g><path d="M 29.453125 -5.46875 C 29.453125 -3.375 29.226562 -1.507812 28.78125 0.125 C 26.976562 0.125 24.320312 0.164062 20.8125 0.25 L 12.765625 0.3125 C 9.117188 0.3125 5.476562 0.1875 1.84375 -0.0625 C 1.882812 -1.375 1.820312 -6.46875 1.65625 -15.34375 C 1.53125 -20.375 1.46875 -24.238281 1.46875 -26.9375 C 1.46875 -32.550781 1.613281 -37.769531 1.90625 -42.59375 L 7.296875 -42.78125 C 13.359375 -43.019531 17.984375 -43.140625 21.171875 -43.140625 C 23.910156 -43.140625 26.570312 -43.039062 29.15625 -42.84375 C 29.320312 -41.976562 29.40625 -40.972656 29.40625 -39.828125 C 29.40625 -39.210938 29.363281 -38.210938 29.28125 -36.828125 C 29.195312 -35.515625 29.15625 -34.488281 29.15625 -33.75 C 26.695312 -33.21875 23.953125 -32.953125 20.921875 -32.953125 L 12.953125 -32.890625 C 12.742188 -30.972656 12.640625 -29.378906 12.640625 -28.109375 C 12.640625 -27.128906 12.765625 -26.269531 13.015625 -25.53125 L 17.0625 -26.015625 C 17.632812 -26.015625 18.492188 -25.976562 19.640625 -25.90625 L 20.4375 -25.84375 C 20.644531 -24.613281 20.75 -23.28125 20.75 -21.84375 L 20.625 -16.9375 C 19.3125 -16.570312 17.550781 -16.390625 15.34375 -16.390625 L 13.75 -16.453125 C 13.457031 -16.453125 13.273438 -16.410156 13.203125 -16.328125 L 12.953125 -13.140625 C 12.953125 -11.460938 13.035156 -10.066406 13.203125 -8.953125 C 15.328125 -8.953125 17.390625 -8.894531 19.390625 -8.78125 C 20.085938 -8.738281 20.945312 -8.695312 21.96875 -8.65625 C 22.988281 -8.613281 24.195312 -8.59375 25.59375 -8.59375 L 29.34375 -8.71875 C 29.414062 -6.832031 29.453125 -5.75 29.453125 -5.46875 Z M 29.453125 -5.46875 "/></g></g></g><g fill="#795cd2" fill-opacity="1"><g transform="translate(162.767603, 298.513091)"><g><path d="M 26.765625 -12.09375 C 26.554688 -9.3125 26.316406 -7.082031 26.046875 -5.40625 C 25.785156 -3.726562 25.390625 -2.582031 24.859375 -1.96875 C 24.035156 -0.820312 22.859375 -0.0234375 21.328125 0.421875 C 19.796875 0.878906 18.003906 1.109375 15.953125 1.109375 C 15.179688 1.109375 14.097656 1.066406 12.703125 0.984375 C 11.390625 0.898438 10.390625 0.859375 9.703125 0.859375 C 7.453125 0.453125 5.546875 -0.46875 3.984375 -1.90625 C 2.722656 -3.132812 1.851562 -4.664062 1.375 -6.5 C 0.90625 -8.34375 0.671875 -10.410156 0.671875 -12.703125 L 0.671875 -14.609375 C 0.671875 -17.023438 0.609375 -18.742188 0.484375 -19.765625 C 0.484375 -21.441406 0.609375 -22.953125 0.859375 -24.296875 C 0.941406 -25.117188 1.1875 -26.082031 1.59375 -27.1875 L 1.96875 -27.984375 C 1.925781 -27.941406 1.90625 -27.941406 1.90625 -27.984375 C 2.476562 -29.210938 3.722656 -30.144531 5.640625 -30.78125 C 7.566406 -31.414062 9.71875 -31.734375 12.09375 -31.734375 C 12.289062 -31.691406 13.023438 -31.671875 14.296875 -31.671875 C 14.546875 -31.710938 15.054688 -31.734375 15.828125 -31.734375 C 16.328125 -31.734375 16.675781 -31.710938 16.875 -31.671875 C 20.113281 -31.378906 22.53125 -30.5 24.125 -29.03125 C 25.144531 -28.207031 25.828125 -27.03125 26.171875 -25.5 C 26.523438 -23.96875 26.742188 -21.867188 26.828125 -19.203125 L 26.828125 -18.53125 L 26.875 -17.609375 C 25.613281 -17.367188 24.550781 -17.25 23.6875 -17.25 C 22.707031 -17.25 21.03125 -17.390625 18.65625 -17.671875 L 17.3125 -17.859375 C 17.101562 -19.046875 16.691406 -19.992188 16.078125 -20.703125 C 15.460938 -21.421875 14.6875 -21.78125 13.75 -21.78125 C 13.5 -21.78125 13.171875 -21.742188 12.765625 -21.671875 L 12.828125 -21.671875 C 12.253906 -21.460938 11.804688 -21.175781 11.484375 -20.8125 C 11.148438 -20.476562 10.921875 -19.984375 10.796875 -19.328125 C 10.640625 -18.179688 10.5625 -16.691406 10.5625 -14.859375 L 10.5 -12.765625 C 10.457031 -12.316406 10.4375 -11.765625 10.4375 -11.109375 C 10.4375 -10.171875 10.753906 -9.460938 11.390625 -8.984375 C 12.023438 -8.515625 12.8125 -8.28125 13.75 -8.28125 C 14.53125 -8.28125 15.285156 -8.488281 16.015625 -8.90625 C 16.222656 -9.144531 16.4375 -9.601562 16.65625 -10.28125 C 16.882812 -10.957031 17.0625 -11.644531 17.1875 -12.34375 C 18.414062 -12.175781 19.679688 -12.132812 20.984375 -12.21875 L 22.34375 -12.21875 L 23.6875 -12.28125 C 24.707031 -12.28125 25.484375 -12.21875 26.015625 -12.09375 Z M 26.765625 -12.09375 "/></g></g></g><g fill="#795cd2" fill-opacity="1"><g transform="translate(189.894134, 298.513091)"><g><path d="M 12.09375 -31.859375 C 12.289062 -31.816406 13.023438 -31.796875 14.296875 -31.796875 C 14.546875 -31.835938 15.054688 -31.859375 15.828125 -31.859375 C 16.328125 -31.859375 16.675781 -31.835938 16.875 -31.796875 C 18.3125 -31.710938 19.671875 -31.4375 20.953125 -30.96875 C 22.242188 -30.5 23.28125 -29.875 24.0625 -29.09375 C 25.25 -28.15625 26.023438 -26.679688 26.390625 -24.671875 C 26.753906 -22.671875 26.9375 -20.335938 26.9375 -17.671875 L 26.9375 -15.65625 C 26.820312 -12.175781 26.617188 -9.25 26.328125 -6.875 C 26.046875 -4.5 25.554688 -2.90625 24.859375 -2.09375 C 24.035156 -0.945312 22.859375 -0.148438 21.328125 0.296875 C 19.796875 0.753906 18.003906 0.984375 15.953125 0.984375 C 15.179688 0.984375 14.097656 0.941406 12.703125 0.859375 C 11.390625 0.773438 10.390625 0.734375 9.703125 0.734375 C 7.523438 0.328125 5.617188 -0.59375 3.984375 -2.03125 C 2.722656 -3.25 1.84375 -4.789062 1.34375 -6.65625 C 0.851562 -8.519531 0.609375 -10.617188 0.609375 -12.953125 L 0.546875 -19.953125 C 0.429688 -21.054688 0.566406 -22.648438 0.953125 -24.734375 C 1.335938 -26.816406 1.734375 -28.003906 2.140625 -28.296875 C 2.597656 -29.441406 3.773438 -30.320312 5.671875 -30.9375 C 7.578125 -31.550781 9.71875 -31.859375 12.09375 -31.859375 Z M 10.796875 -19.453125 C 10.753906 -19.046875 10.710938 -18.484375 10.671875 -17.765625 C 10.640625 -17.046875 10.625 -16.503906 10.625 -16.140625 L 10.5625 -14.921875 C 10.5625 -13.890625 10.519531 -12.757812 10.4375 -11.53125 C 10.476562 -10.632812 10.820312 -9.898438 11.46875 -9.328125 C 12.125 -8.753906 12.863281 -8.46875 13.6875 -8.46875 C 14.507812 -8.46875 15.328125 -8.648438 16.140625 -9.015625 C 16.390625 -9.140625 16.695312 -9.816406 17.0625 -11.046875 L 17.125 -11.359375 C 17.363281 -13.398438 17.484375 -14.890625 17.484375 -15.828125 C 17.484375 -16.816406 17.40625 -17.695312 17.25 -18.46875 C 17.039062 -19.53125 16.640625 -20.367188 16.046875 -20.984375 C 15.453125 -21.597656 14.707031 -21.90625 13.8125 -21.90625 C 13.644531 -21.90625 13.316406 -21.863281 12.828125 -21.78125 C 11.804688 -21.457031 11.210938 -21.007812 11.046875 -20.4375 Z M 10.796875 -19.453125 "/></g></g></g><g fill="#795cd2" fill-opacity="1"><g transform="translate(217.388898, 298.513091)"><g><path d="M 27.4375 -42.96875 C 27.519531 -41.570312 27.5625 -40.257812 27.5625 -39.03125 C 27.5625 -36.65625 27.414062 -34.53125 27.125 -32.65625 C 25.78125 -32.894531 24.71875 -33.015625 23.9375 -33.015625 L 21.046875 -33.078125 C 19.984375 -33.078125 19.453125 -33.015625 19.453125 -32.890625 C 19.367188 -32.316406 19.328125 -31.113281 19.328125 -29.28125 C 19.328125 -25.675781 19.472656 -15.976562 19.765625 -0.1875 C 18.578125 0.0195312 17.1875 0.125 15.59375 0.125 L 13.8125 0.125 C 11.757812 0.125 9.875 0.265625 8.15625 0.546875 C 8.039062 0.347656 7.953125 -0.0664062 7.890625 -0.703125 C 7.828125 -1.335938 7.816406 -1.921875 7.859375 -2.453125 L 7.859375 -5.46875 L 7.921875 -10.984375 C 7.921875 -18.429688 7.753906 -25.695312 7.421875 -32.78125 C 6.972656 -32.976562 6.34375 -33.078125 5.53125 -33.078125 L 3.0625 -33.015625 C 1.675781 -33.015625 0.675781 -33.117188 0.0625 -33.328125 C -0.0625 -33.566406 -0.164062 -34.238281 -0.25 -35.34375 C -0.332031 -36.457031 -0.375 -37.707031 -0.375 -39.09375 C -0.375 -41.144531 -0.351562 -42.617188 -0.3125 -43.515625 L 2.328125 -43.515625 L 4.71875 -43.578125 L 8.15625 -43.578125 L 11.71875 -43.640625 C 17.820312 -43.640625 22.796875 -43.414062 26.640625 -42.96875 Z M 27.4375 -42.96875 "/></g></g></g><g fill="#795cd2" fill-opacity="1"><g transform="translate(244.576805, 298.513091)"><g><path d="M 10.5 -13.625 C 10.539062 -12.269531 10.609375 -11.273438 10.703125 -10.640625 C 10.804688 -10.015625 11.082031 -9.351562 11.53125 -8.65625 C 11.863281 -8.039062 12.296875 -7.566406 12.828125 -7.234375 C 13.359375 -6.910156 13.910156 -6.75 14.484375 -6.75 C 15.335938 -6.75 16.03125 -7.207031 16.5625 -8.125 C 17.101562 -9.050781 17.332031 -10.414062 17.25 -12.21875 C 18.4375 -12.050781 19.703125 -12.007812 21.046875 -12.09375 L 26.828125 -11.78125 C 26.828125 -9.9375 26.691406 -8.070312 26.421875 -6.1875 C 26.148438 -4.3125 25.648438 -2.882812 24.921875 -1.90625 C 24.097656 -0.757812 22.921875 0.0234375 21.390625 0.453125 C 19.859375 0.890625 18.066406 1.109375 16.015625 1.109375 C 15.242188 1.109375 14.160156 1.066406 12.765625 0.984375 C 12.109375 0.941406 11.144531 0.921875 9.875 0.921875 C 8.613281 0.753906 7.347656 0.304688 6.078125 -0.421875 C 4.109375 -1.984375 2.65625 -4.195312 1.71875 -7.0625 C 0.78125 -9.925781 0.3125 -13.035156 0.3125 -16.390625 C 0.3125 -19.910156 0.800781 -23.140625 1.78125 -26.078125 C 2.59375 -27.921875 4.101562 -29.351562 6.3125 -30.375 C 8.53125 -31.40625 10.988281 -31.921875 13.6875 -31.921875 C 15.15625 -31.921875 16.585938 -31.753906 17.984375 -31.421875 C 21.128906 -30.804688 23.425781 -29.320312 24.875 -26.96875 C 26.332031 -24.613281 27.0625 -21.800781 27.0625 -18.53125 C 27.0625 -18 27.019531 -17.078125 26.9375 -15.765625 C 26.164062 -15.566406 24.390625 -15.375 21.609375 -15.1875 C 18.828125 -15.007812 16.226562 -14.921875 13.8125 -14.921875 L 10.5 -14.921875 Z M 16.515625 -24.671875 C 15.898438 -25.035156 15.347656 -25.21875 14.859375 -25.21875 C 13.421875 -25.21875 12.394531 -24.890625 11.78125 -24.234375 C 11.164062 -23.585938 10.796875 -22.671875 10.671875 -21.484375 C 10.640625 -21.316406 10.625 -21.128906 10.625 -20.921875 C 10.625 -20.679688 10.742188 -20.539062 10.984375 -20.5 C 11.234375 -20.457031 11.847656 -20.457031 12.828125 -20.5 L 15.53125 -20.5 L 17.375 -20.4375 L 18.171875 -20.4375 C 18.285156 -20.394531 18.363281 -20.394531 18.40625 -20.4375 C 18.445312 -20.476562 18.46875 -20.5625 18.46875 -20.6875 L 18.46875 -20.921875 C 18.46875 -21.785156 18.3125 -22.546875 18 -23.203125 C 17.695312 -23.859375 17.28125 -24.328125 16.75 -24.609375 Z M 16.515625 -24.671875 "/></g></g></g><g fill="#795cd2" fill-opacity="1"><g transform="translate(271.826077, 298.513091)"><g><path d="M 26.765625 -12.09375 C 26.554688 -9.3125 26.316406 -7.082031 26.046875 -5.40625 C 25.785156 -3.726562 25.390625 -2.582031 24.859375 -1.96875 C 24.035156 -0.820312 22.859375 -0.0234375 21.328125 0.421875 C 19.796875 0.878906 18.003906 1.109375 15.953125 1.109375 C 15.179688 1.109375 14.097656 1.066406 12.703125 0.984375 C 11.390625 0.898438 10.390625 0.859375 9.703125 0.859375 C 7.453125 0.453125 5.546875 -0.46875 3.984375 -1.90625 C 2.722656 -3.132812 1.851562 -4.664062 1.375 -6.5 C 0.90625 -8.34375 0.671875 -10.410156 0.671875 -12.703125 L 0.671875 -14.609375 C 0.671875 -17.023438 0.609375 -18.742188 0.484375 -19.765625 C 0.484375 -21.441406 0.609375 -22.953125 0.859375 -24.296875 C 0.941406 -25.117188 1.1875 -26.082031 1.59375 -27.1875 L 1.96875 -27.984375 C 1.925781 -27.941406 1.90625 -27.941406 1.90625 -27.984375 C 2.476562 -29.210938 3.722656 -30.144531 5.640625 -30.78125 C 7.566406 -31.414062 9.71875 -31.734375 12.09375 -31.734375 C 12.289062 -31.691406 13.023438 -31.671875 14.296875 -31.671875 C 14.546875 -31.710938 15.054688 -31.734375 15.828125 -31.734375 C 16.328125 -31.734375 16.675781 -31.710938 16.875 -31.671875 C 20.113281 -31.378906 22.53125 -30.5 24.125 -29.03125 C 25.144531 -28.207031 25.828125 -27.03125 26.171875 -25.5 C 26.523438 -23.96875 26.742188 -21.867188 26.828125 -19.203125 L 26.828125 -18.53125 L 26.875 -17.609375 C 25.613281 -17.367188 24.550781 -17.25 23.6875 -17.25 C 22.707031 -17.25 21.03125 -17.390625 18.65625 -17.671875 L 17.3125 -17.859375 C 17.101562 -19.046875 16.691406 -19.992188 16.078125 -20.703125 C 15.460938 -21.421875 14.6875 -21.78125 13.75 -21.78125 C 13.5 -21.78125 13.171875 -21.742188 12.765625 -21.671875 L 12.828125 -21.671875 C 12.253906 -21.460938 11.804688 -21.175781 11.484375 -20.8125 C 11.148438 -20.476562 10.921875 -19.984375 10.796875 -19.328125 C 10.640625 -18.179688 10.5625 -16.691406 10.5625 -14.859375 L 10.5 -12.765625 C 10.457031 -12.316406 10.4375 -11.765625 10.4375 -11.109375 C 10.4375 -10.171875 10.753906 -9.460938 11.390625 -8.984375 C 12.023438 -8.515625 12.8125 -8.28125 13.75 -8.28125 C 14.53125 -8.28125 15.285156 -8.488281 16.015625 -8.90625 C 16.222656 -9.144531 16.4375 -9.601562 16.65625 -10.28125 C 16.882812 -10.957031 17.0625 -11.644531 17.1875 -12.34375 C 18.414062 -12.175781 19.679688 -12.132812 20.984375 -12.21875 L 22.34375 -12.21875 L 23.6875 -12.28125 C 24.707031 -12.28125 25.484375 -12.21875 26.015625 -12.09375 Z M 26.765625 -12.09375 "/></g></g></g><g fill="#795cd2" fill-opacity="1"><g transform="translate(298.952597, 298.513091)"><g><path d="M 11.171875 -28.484375 C 11.210938 -28.484375 11.222656 -28.492188 11.203125 -28.515625 C 11.179688 -28.535156 11.191406 -28.546875 11.234375 -28.546875 C 12.210938 -29.191406 13.347656 -29.707031 14.640625 -30.09375 C 15.929688 -30.488281 17.207031 -30.6875 18.46875 -30.6875 C 21.175781 -30.6875 23.265625 -30.03125 24.734375 -28.71875 C 25.878906 -27.695312 26.453125 -24.320312 26.453125 -18.59375 C 26.453125 -16.914062 26.410156 -14.359375 26.328125 -10.921875 C 26.242188 -7.972656 26.203125 -5.867188 26.203125 -4.609375 C 26.203125 -3.210938 26.242188 -1.65625 26.328125 0.0625 C 24.078125 0.382812 21.867188 0.503906 19.703125 0.421875 L 16.8125 0.421875 C 16.726562 -0.796875 16.6875 -3.164062 16.6875 -6.6875 L 16.6875 -9.765625 L 16.625 -14.109375 C 16.59375 -14.359375 16.578125 -14.769531 16.578125 -15.34375 C 16.535156 -16.570312 16.421875 -17.515625 16.234375 -18.171875 C 16.046875 -18.828125 15.878906 -19.234375 15.734375 -19.390625 C 15.597656 -19.554688 15.382812 -19.765625 15.09375 -20.015625 C 14.769531 -20.210938 14.300781 -20.3125 13.6875 -20.3125 C 12.945312 -20.3125 12.289062 -20.046875 11.71875 -19.515625 C 11.144531 -18.984375 10.835938 -18.101562 10.796875 -16.875 C 10.753906 -16.257812 10.734375 -15.320312 10.734375 -14.0625 C 10.734375 -13.03125 10.773438 -11.535156 10.859375 -9.578125 C 10.941406 -7.523438 10.984375 -5.988281 10.984375 -4.96875 C 10.984375 -3.125 10.898438 -1.488281 10.734375 -0.0625 C 9.628906 0.226562 8.738281 0.398438 8.0625 0.453125 C 7.394531 0.515625 6.648438 0.523438 5.828125 0.484375 C 5.460938 0.441406 4.867188 0.421875 4.046875 0.421875 C 3.109375 0.421875 2.1875 0.460938 1.28125 0.546875 L 1.28125 -4.359375 L 1.234375 -11.484375 C 1.191406 -14.753906 1.171875 -20.664062 1.171875 -29.21875 C 1.171875 -37.03125 1.207031 -42.222656 1.28125 -44.796875 C 2.59375 -44.640625 3.617188 -44.5625 4.359375 -44.5625 C 5.054688 -44.5625 5.734375 -44.601562 6.390625 -44.6875 L 7.421875 -44.796875 C 8.773438 -44.921875 9.492188 -44.984375 9.578125 -44.984375 C 10.554688 -44.984375 11.066406 -44.800781 11.109375 -44.4375 C 11.191406 -43.289062 11.234375 -41.039062 11.234375 -37.6875 L 11.171875 -32.09375 Z M 11.171875 -28.484375 "/></g></g></g></svg>